<svg width="48" height="63" viewBox="0 0 48 63" fill="none" xmlns="http://www.w3.org/2000/svg">
<path d="M24 63L4.94744 38.25H43.0526L24 63Z" fill="#FF6726"/>
<rect x="1" y="1" width="46" height="46" rx="23" fill="#FF6726"/>
<rect x="1" y="1" width="46" height="46" rx="23" stroke="#FF6726" stroke-width="2"/>
<path d="M13.3335 36V33.3333H34.6668V36H13.3335ZM18.6668 30.6667C17.2002 30.6667 15.9446 30.1444 14.9002 29.1C13.8557 28.0556 13.3335 26.8 13.3335 25.3333V12H34.6668C35.4002 12 36.0279 12.2611 36.5502 12.7833C37.0724 13.3056 37.3335 13.9333 37.3335 14.6667V18.6667C37.3335 19.4 37.0724 20.0278 36.5502 20.55C36.0279 21.0722 35.4002 21.3333 34.6668 21.3333H32.0002V25.3333C32.0002 26.8 31.4779 28.0556 30.4335 29.1C29.3891 30.1444 28.1335 30.6667 26.6668 30.6667H18.6668ZM18.6668 28H26.6668C27.4002 28 28.0279 27.7389 28.5502 27.2167C29.0724 26.6944 29.3335 26.0667 29.3335 25.3333V14.6667H16.0002V25.3333C16.0002 26.0667 16.2613 26.6944 16.7835 27.2167C17.3057 27.7389 17.9335 28 18.6668 28ZM32.0002 18.6667H34.6668V14.6667H32.0002V18.6667ZM18.6668 28H16.0002H29.3335H18.6668Z" fill="white"/>
</svg>
