<svg width="36" height="36" viewBox="0 0 36 36" fill="none" xmlns="http://www.w3.org/2000/svg">
<g id="call_24dp_E8EAED_FILL0_wght400_GRAD0_opsz24 1">
<path id="Vector" d="M29.9299 31.5C26.8049 31.5 23.7174 30.8188 20.6674 29.4563C17.6174 28.0938 14.8424 26.1625 12.3424 23.6625C9.84238 21.1625 7.91113 18.3875 6.54863 15.3375C5.18613 12.2875 4.50488 9.2 4.50488 6.075C4.50488 5.625 4.65488 5.25 4.95488 4.95C5.25488 4.65 5.62988 4.5 6.07988 4.5H12.1549C12.5049 4.5 12.8174 4.61875 13.0924 4.85625C13.3674 5.09375 13.5299 5.375 13.5799 5.7L14.5549 10.95C14.6049 11.35 14.5924 11.6875 14.5174 11.9625C14.4424 12.2375 14.3049 12.475 14.1049 12.675L10.4674 16.35C10.9674 17.275 11.5611 18.1688 12.2486 19.0313C12.9361 19.8938 13.6924 20.725 14.5174 21.525C15.2924 22.3 16.1049 23.0188 16.9549 23.6813C17.8049 24.3438 18.7049 24.95 19.6549 25.5L23.1799 21.975C23.4049 21.75 23.6986 21.5813 24.0611 21.4688C24.4236 21.3563 24.7799 21.325 25.1299 21.375L30.3049 22.425C30.6549 22.525 30.9424 22.7063 31.1674 22.9688C31.3924 23.2313 31.5049 23.525 31.5049 23.85V29.925C31.5049 30.375 31.3549 30.75 31.0549 31.05C30.7549 31.35 30.3799 31.5 29.9299 31.5ZM9.04238 13.5L11.5174 11.025L10.8799 7.5H7.54238C7.66738 8.525 7.84238 9.5375 8.06738 10.5375C8.29238 11.5375 8.61738 12.525 9.04238 13.5ZM22.4674 26.925C23.4424 27.35 24.4361 27.6875 25.4486 27.9375C26.4611 28.1875 27.4799 28.35 28.5049 28.425V25.125L24.9799 24.4125L22.4674 26.925Z" fill="white"/>
</g>
</svg>
