<svg width="48" height="64" viewBox="0 0 48 64" fill="none" xmlns="http://www.w3.org/2000/svg">
<path d="M24 63.5L4.94744 38.75H43.0526L24 63.5Z" fill="#FF6726"/>
<rect x="1" y="1.5" width="46" height="46" rx="23" fill="#FF6726"/>
<rect x="1" y="1.5" width="46" height="46" rx="23" stroke="#FF6726" stroke-width="2"/>
<path d="M23.9997 37L14.6663 31.9333V23.9333L9.33301 21L23.9997 13L38.6663 21V31.6667H35.9997V22.4667L33.333 23.9333V31.9333L23.9997 37ZM23.9997 25.9333L33.133 21L23.9997 16.0667L14.8663 21L23.9997 25.9333ZM23.9997 33.9667L30.6663 30.3667V25.3333L23.9997 29L17.333 25.3333V30.3667L23.9997 33.9667Z" fill="white"/>
</svg>
