<svg width="14" height="15" viewBox="0 0 14 15" fill="none" xmlns="http://www.w3.org/2000/svg">
<path d="M8.92508 10.2415L9.74175 9.42484L7.58341 7.2665V4.58317H6.41675V7.73317L8.92508 10.2415ZM7.00008 13.3332C6.19314 13.3332 5.4348 13.18 4.72508 12.8738C4.01536 12.5675 3.398 12.1519 2.873 11.6269C2.348 11.1019 1.93237 10.4846 1.62612 9.77484C1.31987 9.06511 1.16675 8.30678 1.16675 7.49984C1.16675 6.69289 1.31987 5.93456 1.62612 5.22484C1.93237 4.51511 2.348 3.89775 2.873 3.37275C3.398 2.84775 4.01536 2.43213 4.72508 2.12588C5.4348 1.81963 6.19314 1.6665 7.00008 1.6665C7.80703 1.6665 8.56536 1.81963 9.27508 2.12588C9.9848 2.43213 10.6022 2.84775 11.1272 3.37275C11.6522 3.89775 12.0678 4.51511 12.374 5.22484C12.6803 5.93456 12.8334 6.69289 12.8334 7.49984C12.8334 8.30678 12.6803 9.06511 12.374 9.77484C12.0678 10.4846 11.6522 11.1019 11.1272 11.6269C10.6022 12.1519 9.9848 12.5675 9.27508 12.8738C8.56536 13.18 7.80703 13.3332 7.00008 13.3332ZM7.00008 12.1665C8.29314 12.1665 9.39418 11.712 10.3032 10.803C11.2122 9.89393 11.6667 8.79289 11.6667 7.49984C11.6667 6.20678 11.2122 5.10574 10.3032 4.19671C9.39418 3.28768 8.29314 2.83317 7.00008 2.83317C5.70703 2.83317 4.60598 3.28768 3.69696 4.19671C2.78793 5.10574 2.33341 6.20678 2.33341 7.49984C2.33341 8.79289 2.78793 9.89393 3.69696 10.803C4.60598 11.712 5.70703 12.1665 7.00008 12.1665Z" fill="#8E8D8D"/>
</svg>
