<svg width="48" height="64" viewBox="0 0 48 64" fill="none" xmlns="http://www.w3.org/2000/svg">
<path d="M24 63.5L4.94744 38.75H43.0526L24 63.5Z" fill="#FF6726"/>
<rect x="1" y="1.5" width="46" height="46" rx="23" fill="#FF6726"/>
<rect x="1" y="1.5" width="46" height="46" rx="23" stroke="#FF6726" stroke-width="2"/>
<path d="M16 37.7539V25.7539C14.8 25.4479 13.8333 24.825 13.1 23.8851C12.3667 22.9452 12 21.8851 12 20.7047V11.5244H14.6667V19.3933H16V11.5244H18.6667V19.3933H20V11.5244H22.6667V20.7047C22.6667 21.8851 22.3 22.9452 21.5667 23.8851C20.8333 24.825 19.8667 25.4479 18.6667 25.7539V37.7539H16ZM29.3333 37.7539V25.2621C28.1333 24.8687 27.1667 24.0435 26.4333 22.7867C25.7 21.5299 25.3333 20.1037 25.3333 18.508C25.3333 16.5627 25.8556 14.9124 26.9 13.5572C27.9444 12.202 29.2 11.5244 30.6667 11.5244C32.1333 11.5244 33.3889 12.2075 34.4333 13.5736C35.4778 14.9397 36 16.5955 36 18.5408C36 20.1364 35.6333 21.5572 34.9 22.8031C34.1667 24.049 33.2 24.8687 32 25.2621V37.7539H29.3333Z" fill="white"/>
</svg>
