<svg width="49" height="64" viewBox="0 0 49 64" fill="none" xmlns="http://www.w3.org/2000/svg">
<path d="M24.5 63.5L5.44744 38.75H43.5526L24.5 63.5Z" fill="#FF6726"/>
<rect x="1.5" y="1.5" width="46" height="46" rx="23" fill="#FF6726"/>
<rect x="1.5" y="1.5" width="46" height="46" rx="23" stroke="#FF6726" stroke-width="2"/>
<path d="M14.5665 32.1667C13.4332 32.1667 12.5554 31.7722 11.9332 30.9833C11.311 30.1944 11.0776 29.2333 11.2332 28.1L12.6332 18.1C12.8332 16.7667 13.4276 15.6667 14.4165 14.8C15.4054 13.9333 16.5665 13.5 17.8999 13.5H31.0999C32.4332 13.5 33.5943 13.9333 34.5832 14.8C35.5721 15.6667 36.1665 16.7667 36.3665 18.1L37.7665 28.1C37.9221 29.2333 37.6887 30.1944 37.0665 30.9833C36.4443 31.7722 35.5665 32.1667 34.4332 32.1667C33.9665 32.1667 33.5332 32.0833 33.1332 31.9167C32.7332 31.75 32.3665 31.5 32.0332 31.1667L29.0332 28.1667H19.9665L16.9665 31.1667C16.6332 31.5 16.2665 31.75 15.8665 31.9167C15.4665 32.0833 15.0332 32.1667 14.5665 32.1667ZM15.0999 29.3L18.8999 25.5H30.0999L33.8999 29.3C33.9443 29.3444 34.1221 29.4111 34.4332 29.5C34.6776 29.5 34.8721 29.4278 35.0165 29.2833C35.161 29.1389 35.211 28.9444 35.1665 28.7L33.6999 18.4333C33.611 17.7889 33.3221 17.25 32.8332 16.8167C32.3443 16.3833 31.7665 16.1667 31.0999 16.1667H17.8999C17.2332 16.1667 16.6554 16.3833 16.1665 16.8167C15.6776 17.25 15.3887 17.7889 15.2999 18.4333L13.8332 28.7C13.7887 28.9444 13.8387 29.1389 13.9832 29.2833C14.1276 29.4278 14.3221 29.5 14.5665 29.5C14.611 29.5 14.7887 29.4333 15.0999 29.3ZM31.1665 24.1667C31.5443 24.1667 31.861 24.0389 32.1165 23.7833C32.3721 23.5278 32.4999 23.2111 32.4999 22.8333C32.4999 22.4556 32.3721 22.1389 32.1165 21.8833C31.861 21.6278 31.5443 21.5 31.1665 21.5C30.7887 21.5 30.4721 21.6278 30.2165 21.8833C29.961 22.1389 29.8332 22.4556 29.8332 22.8333C29.8332 23.2111 29.961 23.5278 30.2165 23.7833C30.4721 24.0389 30.7887 24.1667 31.1665 24.1667ZM28.4999 20.1667C28.8776 20.1667 29.1943 20.0389 29.4499 19.7833C29.7054 19.5278 29.8332 19.2111 29.8332 18.8333C29.8332 18.4556 29.7054 18.1389 29.4499 17.8833C29.1943 17.6278 28.8776 17.5 28.4999 17.5C28.1221 17.5 27.8054 17.6278 27.5499 17.8833C27.2943 18.1389 27.1665 18.4556 27.1665 18.8333C27.1665 19.2111 27.2943 19.5278 27.5499 19.7833C27.8054 20.0389 28.1221 20.1667 28.4999 20.1667ZM18.8332 24.1667H20.8332V21.8333H23.1665V19.8333H20.8332V17.5H18.8332V19.8333H16.4999V21.8333H18.8332V24.1667Z" fill="white"/>
</svg>
