<svg width="19" height="19" viewBox="0 0 19 19" fill="none" xmlns="http://www.w3.org/2000/svg">
<g id="kakao 1" clip-path="url(#clip0_2139_7198)">
<path id="Vector" d="M9.48254 2.18689C11.024 2.18689 12.4496 2.48689 13.7595 3.08688C15.0694 3.68687 16.105 4.50274 16.8661 5.53447C17.6273 6.56616 18.0079 7.69155 18.0079 8.91059C18.0079 10.1296 17.6273 11.2566 16.8661 12.2915C16.105 13.3264 15.071 14.1438 13.7643 14.7438C12.4575 15.3438 11.0303 15.6438 9.48254 15.6438C8.99412 15.6438 8.4898 15.6089 7.96967 15.5391C5.71144 17.1073 4.50941 17.9009 4.36351 17.9199C4.29373 17.9454 4.22711 17.9422 4.16368 17.9105C4.1383 17.8914 4.11928 17.866 4.10659 17.8342C4.0939 17.8025 4.08757 17.7739 4.08757 17.7485V17.7104C4.12565 17.4628 4.41424 16.4311 4.95343 14.6153C3.72917 14.0058 2.75706 13.1978 2.0371 12.1915C1.31714 11.1852 0.957153 10.0915 0.957153 8.91059C0.957153 7.69155 1.33775 6.56616 2.09895 5.53447C2.86014 4.50274 3.89568 3.68687 5.20558 3.08688C6.51546 2.48689 7.94112 2.18689 9.48254 2.18689Z" fill="black"/>
</g>
<defs>
<clipPath id="clip0_2139_7198">
<rect width="18" height="18" fill="white" transform="translate(0.5 0.5)"/>
</clipPath>
</defs>
</svg>
