<svg width="301" height="45" viewBox="0 0 301 45" fill="none" xmlns="http://www.w3.org/2000/svg">
<rect x="0.5" width="300" height="45" rx="12" fill="#FEE500"/>
<g clip-path="url(#clip0_2139_7207)">
<path d="M105.483 15.1869C107.024 15.1869 108.45 15.4869 109.76 16.0869C111.069 16.6869 112.105 17.5027 112.866 18.5345C113.627 19.5662 114.008 20.6915 114.008 21.9106C114.008 23.1296 113.627 24.2566 112.866 25.2915C112.105 26.3264 111.071 27.1438 109.764 27.7438C108.458 28.3438 107.03 28.6438 105.483 28.6438C104.994 28.6438 104.49 28.6089 103.97 28.5391C101.711 30.1073 100.509 30.9009 100.364 30.9199C100.294 30.9454 100.227 30.9422 100.164 30.9105C100.138 30.8914 100.119 30.866 100.107 30.8342C100.094 30.8025 100.088 30.7739 100.088 30.7485V30.7104C100.126 30.4628 100.414 29.4311 100.953 27.6153C99.7292 27.0058 98.7571 26.1978 98.0371 25.1915C97.3171 24.1852 96.9572 23.0915 96.9572 21.9106C96.9572 20.6915 97.3378 19.5662 98.0989 18.5345C98.8601 17.5027 99.8957 16.6869 101.206 16.0869C102.515 15.4869 103.941 15.1869 105.483 15.1869Z" fill="black"/>
</g>
<path d="M129.88 18.82C129.87 23.09 127.87 26.23 123.88 28.24L123.055 27.22C125.245 26.22 126.795 24.82 127.705 23.02L123.505 23.47L123.265 22.3L128.14 21.925C128.34 21.295 128.455 20.635 128.485 19.945H123.79V18.82H129.88ZM133.195 17.44V22.72H135.28V23.815H133.195V30.55H131.875V17.44H133.195ZM142.859 18.82C142.849 23.09 140.849 26.23 136.859 28.24L136.034 27.22C138.224 26.22 139.774 24.82 140.684 23.02L136.484 23.47L136.244 22.3L141.119 21.925C141.319 21.295 141.434 20.635 141.464 19.945H136.769V18.82H142.859ZM146.174 17.44V22.72H148.259V23.815H146.174V30.55H144.854V17.44H146.174ZM159.827 21.895C159.827 22.915 159.442 23.755 158.672 24.415C157.912 25.065 156.887 25.44 155.597 25.54V27.76H160.862V28.855H149.027V27.76H154.262V25.525C152.982 25.415 151.962 25.035 151.202 24.385C150.442 23.735 150.062 22.905 150.062 21.895C150.062 20.805 150.507 19.925 151.397 19.255C152.297 18.585 153.477 18.25 154.937 18.25C156.417 18.25 157.602 18.585 158.492 19.255C159.382 19.915 159.827 20.795 159.827 21.895ZM157.487 23.725C158.137 23.255 158.462 22.645 158.462 21.895C158.462 21.145 158.137 20.535 157.487 20.065C156.847 19.595 155.997 19.36 154.937 19.36C153.887 19.36 153.037 19.595 152.387 20.065C151.747 20.535 151.427 21.145 151.427 21.895C151.427 22.645 151.747 23.255 152.387 23.725C153.037 24.195 153.887 24.43 154.937 24.43C155.987 24.43 156.837 24.195 157.487 23.725ZM177.781 28.885H165.946V27.805H171.166V25.735H167.371V21.52H174.991V19.6H167.341V18.52H176.311V22.6H168.691V24.655H176.671V25.735H172.501V27.805H177.781V28.885ZM190.759 28.645H178.924V27.565H190.759V28.645ZM189.184 18.925C189.184 22.275 188.979 24.84 188.569 26.62L187.279 26.455C187.439 25.855 187.569 24.895 187.669 23.575C187.779 22.245 187.834 21.05 187.834 19.99H180.154V18.925H189.184ZM202.658 26.965H201.323V17.44H202.658V26.965ZM202.958 30.145H194.033V26.065H195.368V29.08H202.958V30.145ZM193.193 19.27C193.853 18.64 194.688 18.325 195.698 18.325C196.708 18.325 197.543 18.635 198.203 19.255C198.873 19.875 199.208 20.655 199.208 21.595C199.208 22.535 198.878 23.305 198.218 23.905C197.558 24.495 196.718 24.79 195.698 24.79C194.688 24.79 193.853 24.495 193.193 23.905C192.533 23.305 192.203 22.54 192.203 21.61C192.203 20.67 192.533 19.89 193.193 19.27ZM195.698 19.465C195.088 19.465 194.583 19.665 194.183 20.065C193.793 20.465 193.598 20.97 193.598 21.58C193.598 22.18 193.793 22.68 194.183 23.08C194.583 23.48 195.088 23.68 195.698 23.68C196.338 23.68 196.848 23.485 197.228 23.095C197.608 22.705 197.798 22.205 197.798 21.595C197.798 20.965 197.608 20.455 197.228 20.065C196.848 19.665 196.338 19.465 195.698 19.465Z" fill="black" fill-opacity="0.85"/>
<defs>
<clipPath id="clip0_2139_7207">
<rect width="18" height="18" fill="white" transform="translate(96.5 13.5)"/>
</clipPath>
</defs>
</svg>
