<svg width="28" height="28" viewBox="0 0 28 28" fill="none" xmlns="http://www.w3.org/2000/svg">
<path d="M20.9999 24.4998H8.16659V9.33317L16.3333 1.1665L17.7916 2.62484C17.9277 2.76095 18.0395 2.94567 18.127 3.179C18.2145 3.41234 18.2583 3.63595 18.2583 3.84984V4.25817L16.9749 9.33317H24.4999C25.1221 9.33317 25.6666 9.5665 26.1333 10.0332C26.5999 10.4998 26.8333 11.0443 26.8333 11.6665V13.9998C26.8333 14.1359 26.8138 14.2818 26.7749 14.4373C26.736 14.5929 26.6971 14.7387 26.6583 14.8748L23.1583 23.0998C22.9833 23.4887 22.6916 23.8193 22.2833 24.0915C21.8749 24.3637 21.4471 24.4998 20.9999 24.4998ZM10.4999 22.1665H20.9999L24.4999 13.9998V11.6665H13.9999L15.5749 5.24984L10.4999 10.3248V22.1665ZM8.16659 9.33317V11.6665H4.66659V22.1665H8.16659V24.4998H2.33325V9.33317H8.16659Z" fill="white"/>
</svg>
