<svg width="22" height="17" viewBox="0 0 22 17" fill="none" xmlns="http://www.w3.org/2000/svg">
<path d="M10.9605 8.50002C11.4397 8.50002 11.85 8.36809 12.1912 8.10424C12.5325 7.84038 12.7031 7.52318 12.7031 7.15266C12.7031 6.78213 12.5325 6.46494 12.1912 6.20108C11.85 5.93722 11.4397 5.80529 10.9605 5.80529C10.4813 5.80529 10.0711 5.93722 9.72984 6.20108C9.38858 6.46494 9.21796 6.78213 9.21796 7.15266C9.21796 7.52318 9.38858 7.84038 9.72984 8.10424C10.0711 8.36809 10.4813 8.50002 10.9605 8.50002ZM10.9605 13.4516C12.7321 12.1941 14.0463 11.0516 14.9031 10.0242C15.7599 8.99687 16.1883 8.08459 16.1883 7.28739C16.1883 6.06353 15.6836 5.06143 14.6744 4.28108C13.6652 3.50073 12.4272 3.11055 10.9605 3.11055C9.49386 3.11055 8.25591 3.50073 7.24667 4.28108C6.23743 5.06143 5.73281 6.06353 5.73281 7.28739C5.73281 8.08459 6.16119 8.99687 7.01796 10.0242C7.87472 11.0516 9.18891 12.1941 10.9605 13.4516ZM10.9605 15.2369C8.62258 13.6986 6.87637 12.2698 5.72192 10.9506C4.56746 9.63125 3.99023 8.4102 3.99023 7.28739C3.99023 5.60318 4.69089 4.26143 6.09221 3.26213C7.49353 2.26283 9.11631 1.76318 10.9605 1.76318C12.8048 1.76318 14.4275 2.26283 15.8288 3.26213C17.2302 4.26143 17.9308 5.60318 17.9308 7.28739C17.9308 8.4102 17.3536 9.63125 16.1991 10.9506C15.0447 12.2698 13.2985 13.6986 10.9605 15.2369Z" fill="#AFAFAF"/>
</svg>
