<svg width="36" height="36" viewBox="0 0 36 36" fill="none" xmlns="http://www.w3.org/2000/svg">
<path d="M13.6361 31.0915V10.4733L11.3088 12.7642L9.27246 10.7278L15.0906 4.90967L20.9088 10.7278L18.8725 12.8006L16.5452 10.4733V19.9642C17.3937 19.2127 18.3512 18.6733 19.4179 18.346C20.4846 18.0188 21.5512 17.8551 22.6179 17.8551C22.8846 17.8551 23.1391 17.8672 23.3815 17.8915C23.624 17.9157 23.8543 17.9521 24.0725 18.0006L21.7816 15.6733L23.8179 13.6369L29.6361 19.4551L23.8179 25.2733L21.7816 23.2369L24.0725 20.9097C23.8058 20.8612 23.5391 20.8188 23.2725 20.7824C23.0058 20.746 22.7391 20.7278 22.4725 20.7278C21.1634 20.7278 19.9573 21.0975 18.8543 21.8369C17.7512 22.5763 16.9816 23.7218 16.5452 25.2733V31.0915H13.6361Z" fill="#E8EAED"/>
</svg>
