<svg width="29" height="28" viewBox="0 0 29 28" fill="none" xmlns="http://www.w3.org/2000/svg">
<g id="groups_24dp_E8EAED_FILL0_wght400_GRAD0_opsz24 1" clip-path="url(#clip0_3166_8205)">
<path id="Vector" d="M0.504883 21V19.1625C0.504883 18.3264 0.932661 17.6458 1.78822 17.1208C2.64377 16.5958 3.77155 16.3333 5.17155 16.3333C5.42433 16.3333 5.66738 16.3382 5.90072 16.3479C6.13405 16.3576 6.35766 16.3819 6.57155 16.4208C6.29933 16.8292 6.09516 17.2569 5.95905 17.7042C5.82294 18.1514 5.75488 18.6181 5.75488 19.1042V21H0.504883ZM7.50488 21V19.1042C7.50488 18.4819 7.67502 17.9132 8.0153 17.3979C8.35558 16.8826 8.83683 16.4306 9.45905 16.0417C10.0813 15.6528 10.825 15.3611 11.6903 15.1667C12.5556 14.9722 13.4938 14.875 14.5049 14.875C15.5354 14.875 16.4834 14.9722 17.3486 15.1667C18.2139 15.3611 18.9577 15.6528 19.5799 16.0417C20.2021 16.4306 20.6785 16.8826 21.0091 17.3979C21.3396 17.9132 21.5049 18.4819 21.5049 19.1042V21H7.50488ZM23.2549 21V19.1042C23.2549 18.5986 23.1917 18.1222 23.0653 17.675C22.9389 17.2278 22.7493 16.8097 22.4965 16.4208C22.7104 16.3819 22.9292 16.3576 23.1528 16.3479C23.3764 16.3382 23.6049 16.3333 23.8382 16.3333C25.2382 16.3333 26.366 16.591 27.2215 17.1062C28.0771 17.6215 28.5049 18.3069 28.5049 19.1625V21H23.2549ZM9.98405 18.6667H19.0549C18.8604 18.2778 18.3209 17.9375 17.4361 17.6458C16.5514 17.3542 15.5743 17.2083 14.5049 17.2083C13.4354 17.2083 12.4584 17.3542 11.5736 17.6458C10.6889 17.9375 10.159 18.2778 9.98405 18.6667ZM5.17155 15.1667C4.52988 15.1667 3.98058 14.9382 3.52363 14.4812C3.06669 14.0243 2.83822 13.475 2.83822 12.8333C2.83822 12.1722 3.06669 11.6181 3.52363 11.1708C3.98058 10.7236 4.52988 10.5 5.17155 10.5C5.83266 10.5 6.38683 10.7236 6.83405 11.1708C7.28127 11.6181 7.50488 12.1722 7.50488 12.8333C7.50488 13.475 7.28127 14.0243 6.83405 14.4812C6.38683 14.9382 5.83266 15.1667 5.17155 15.1667ZM23.8382 15.1667C23.1966 15.1667 22.6472 14.9382 22.1903 14.4812C21.7334 14.0243 21.5049 13.475 21.5049 12.8333C21.5049 12.1722 21.7334 11.6181 22.1903 11.1708C22.6472 10.7236 23.1966 10.5 23.8382 10.5C24.4993 10.5 25.0535 10.7236 25.5007 11.1708C25.9479 11.6181 26.1715 12.1722 26.1715 12.8333C26.1715 13.475 25.9479 14.0243 25.5007 14.4812C25.0535 14.9382 24.4993 15.1667 23.8382 15.1667ZM14.5049 14C13.5327 14 12.7063 13.6597 12.0257 12.9792C11.3452 12.2986 11.0049 11.4722 11.0049 10.5C11.0049 9.50833 11.3452 8.67708 12.0257 8.00625C12.7063 7.33542 13.5327 7 14.5049 7C15.4965 7 16.3278 7.33542 16.9986 8.00625C17.6695 8.67708 18.0049 9.50833 18.0049 10.5C18.0049 11.4722 17.6695 12.2986 16.9986 12.9792C16.3278 13.6597 15.4965 14 14.5049 14ZM14.5049 11.6667C14.8354 11.6667 15.1125 11.5549 15.3361 11.3313C15.5597 11.1076 15.6715 10.8306 15.6715 10.5C15.6715 10.1694 15.5597 9.89236 15.3361 9.66875C15.1125 9.44514 14.8354 9.33333 14.5049 9.33333C14.1743 9.33333 13.8972 9.44514 13.6736 9.66875C13.45 9.89236 13.3382 10.1694 13.3382 10.5C13.3382 10.8306 13.45 11.1076 13.6736 11.3313C13.8972 11.5549 14.1743 11.6667 14.5049 11.6667Z" fill="#AFAFAF"/>
</g>
<defs>
<clipPath id="clip0_3166_8205">
<rect width="28" height="28" fill="white" transform="translate(0.504883)"/>
</clipPath>
</defs>
</svg>
