<svg width="32" height="32" viewBox="0 0 32 32" fill="none" xmlns="http://www.w3.org/2000/svg">
<path d="M11.9998 18.6665H25.3332L20.7332 12.6665L17.6665 16.6665L15.5998 13.9998L11.9998 18.6665ZM10.6665 23.9998C9.93317 23.9998 9.30539 23.7387 8.78317 23.2165C8.26095 22.6943 7.99984 22.0665 7.99984 21.3332V5.33317C7.99984 4.59984 8.26095 3.97206 8.78317 3.44984C9.30539 2.92762 9.93317 2.6665 10.6665 2.6665H26.6665C27.3998 2.6665 28.0276 2.92762 28.5498 3.44984C29.0721 3.97206 29.3332 4.59984 29.3332 5.33317V21.3332C29.3332 22.0665 29.0721 22.6943 28.5498 23.2165C28.0276 23.7387 27.3998 23.9998 26.6665 23.9998H10.6665ZM10.6665 21.3332H26.6665V5.33317H10.6665V21.3332ZM5.33317 29.3332C4.59984 29.3332 3.97206 29.0721 3.44984 28.5498C2.92762 28.0276 2.6665 27.3998 2.6665 26.6665V7.99984H5.33317V26.6665H23.9998V29.3332H5.33317Z" fill="white"/>
</svg>
