<svg width="28" height="28" viewBox="0 0 28 28" fill="none" xmlns="http://www.w3.org/2000/svg">
<path d="M4.6665 18.0835V7.00016C4.6665 5.96961 4.93387 5.14808 5.46859 4.53558C6.00331 3.92308 6.70817 3.45641 7.58317 3.13558C8.45817 2.81475 9.4547 2.60086 10.5728 2.49391C11.6908 2.38697 12.8332 2.3335 13.9998 2.3335C15.2832 2.3335 16.4936 2.38697 17.6311 2.49391C18.7686 2.60086 19.7603 2.81475 20.6061 3.13558C21.4519 3.45641 22.1179 3.92308 22.604 4.53558C23.0901 5.14808 23.3332 5.96961 23.3332 7.00016V18.0835C23.3332 19.2307 22.9394 20.1981 22.1519 20.9856C21.3644 21.7731 20.3971 22.1668 19.2498 22.1668L20.9998 23.9168V24.5002H18.6665L16.3332 22.1668H11.6665L9.33317 24.5002H6.99984V23.9168L8.74984 22.1668C7.60262 22.1668 6.63525 21.7731 5.84775 20.9856C5.06025 20.1981 4.6665 19.2307 4.6665 18.0835ZM13.9998 4.66683C11.9387 4.66683 10.4318 4.78836 9.479 5.03141C8.52623 5.27447 7.87484 5.54183 7.52484 5.8335H20.5915C20.2998 5.50294 19.6728 5.22586 18.7103 5.00225C17.7478 4.77864 16.1776 4.66683 13.9998 4.66683ZM6.99984 11.6668H12.8332V8.16683H6.99984V11.6668ZM19.2498 14.0002H6.99984H20.9998H19.2498ZM15.1665 11.6668H20.9998V8.16683H15.1665V11.6668ZM9.9165 18.6668C10.4221 18.6668 10.8401 18.5016 11.1707 18.171C11.5012 17.8404 11.6665 17.4224 11.6665 16.9168C11.6665 16.4113 11.5012 15.9932 11.1707 15.6627C10.8401 15.3321 10.4221 15.1668 9.9165 15.1668C9.41095 15.1668 8.99289 15.3321 8.66234 15.6627C8.33178 15.9932 8.1665 16.4113 8.1665 16.9168C8.1665 17.4224 8.33178 17.8404 8.66234 18.171C8.99289 18.5016 9.41095 18.6668 9.9165 18.6668ZM18.0832 18.6668C18.5887 18.6668 19.0068 18.5016 19.3373 18.171C19.6679 17.8404 19.8332 17.4224 19.8332 16.9168C19.8332 16.4113 19.6679 15.9932 19.3373 15.6627C19.0068 15.3321 18.5887 15.1668 18.0832 15.1668C17.5776 15.1668 17.1596 15.3321 16.829 15.6627C16.4984 15.9932 16.3332 16.4113 16.3332 16.9168C16.3332 17.4224 16.4984 17.8404 16.829 18.171C17.1596 18.5016 17.5776 18.6668 18.0832 18.6668ZM8.74984 19.8335H19.2498C19.7554 19.8335 20.1734 19.6682 20.504 19.3377C20.8346 19.0071 20.9998 18.5891 20.9998 18.0835V14.0002H6.99984V18.0835C6.99984 18.5891 7.16512 19.0071 7.49567 19.3377C7.82623 19.6682 8.24428 19.8335 8.74984 19.8335ZM13.9998 5.8335H20.5915H7.52484H13.9998Z" fill="#9562FB"/>
</svg>
