<svg width="28" height="28" viewBox="0 0 28 28" fill="none" xmlns="http://www.w3.org/2000/svg">
<g id="train_24dp_E8EAED_FILL0_wght400_GRAD0_opsz24 3">
<path id="Vector" d="M4.6665 18.0833V6.99992C4.6665 5.96936 4.93387 5.14784 5.46859 4.53534C6.00331 3.92284 6.70817 3.45617 7.58317 3.13534C8.45817 2.8145 9.4547 2.60061 10.5728 2.49367C11.6908 2.38672 12.8332 2.33325 13.9998 2.33325C15.2832 2.33325 16.4936 2.38672 17.6311 2.49367C18.7686 2.60061 19.7603 2.8145 20.6061 3.13534C21.4519 3.45617 22.1179 3.92284 22.604 4.53534C23.0901 5.14784 23.3332 5.96936 23.3332 6.99992V18.0833C23.3332 19.2305 22.9394 20.1978 22.1519 20.9853C21.3644 21.7728 20.3971 22.1666 19.2498 22.1666L20.9998 23.9166V24.4999H18.6665L16.3332 22.1666H11.6665L9.33317 24.4999H6.99984V23.9166L8.74984 22.1666C7.60262 22.1666 6.63525 21.7728 5.84775 20.9853C5.06025 20.1978 4.6665 19.2305 4.6665 18.0833ZM13.9998 4.66659C11.9387 4.66659 10.4318 4.78811 9.479 5.03117C8.52623 5.27422 7.87484 5.54159 7.52484 5.83325H20.5915C20.2998 5.5027 19.6728 5.22561 18.7103 5.002C17.7478 4.77839 16.1776 4.66659 13.9998 4.66659ZM6.99984 11.6666H12.8332V8.16659H6.99984V11.6666ZM19.2498 13.9999H6.99984H20.9998H19.2498ZM15.1665 11.6666H20.9998V8.16659H15.1665V11.6666ZM9.9165 18.6666C10.4221 18.6666 10.8401 18.5013 11.1707 18.1708C11.5012 17.8402 11.6665 17.4221 11.6665 16.9166C11.6665 16.411 11.5012 15.993 11.1707 15.6624C10.8401 15.3319 10.4221 15.1666 9.9165 15.1666C9.41095 15.1666 8.99289 15.3319 8.66234 15.6624C8.33178 15.993 8.1665 16.411 8.1665 16.9166C8.1665 17.4221 8.33178 17.8402 8.66234 18.1708C8.99289 18.5013 9.41095 18.6666 9.9165 18.6666ZM18.0832 18.6666C18.5887 18.6666 19.0068 18.5013 19.3373 18.1708C19.6679 17.8402 19.8332 17.4221 19.8332 16.9166C19.8332 16.411 19.6679 15.993 19.3373 15.6624C19.0068 15.3319 18.5887 15.1666 18.0832 15.1666C17.5776 15.1666 17.1596 15.3319 16.829 15.6624C16.4984 15.993 16.3332 16.411 16.3332 16.9166C16.3332 17.4221 16.4984 17.8402 16.829 18.1708C17.1596 18.5013 17.5776 18.6666 18.0832 18.6666ZM8.74984 19.8333H19.2498C19.7554 19.8333 20.1734 19.668 20.504 19.3374C20.8346 19.0069 20.9998 18.5888 20.9998 18.0833V13.9999H6.99984V18.0833C6.99984 18.5888 7.16512 19.0069 7.49567 19.3374C7.82623 19.668 8.24428 19.8333 8.74984 19.8333ZM13.9998 5.83325H20.5915H7.52484H13.9998Z" fill="#FFCF33"/>
</g>
</svg>
