<svg width="20" height="23" viewBox="0 0 20 23" fill="none" xmlns="http://www.w3.org/2000/svg">
<path d="M0.666504 16.0833V4.99992C0.666504 3.96936 0.933865 3.14784 1.46859 2.53534C2.00331 1.92284 2.70817 1.45617 3.58317 1.13534C4.45817 0.814502 5.4547 0.600613 6.57275 0.493669C7.69081 0.386724 8.83317 0.333252 9.99984 0.333252C11.2832 0.333252 12.4936 0.386724 13.6311 0.493669C14.7686 0.600613 15.7603 0.814502 16.6061 1.13534C17.4519 1.45617 18.1179 1.92284 18.604 2.53534C19.0901 3.14784 19.3332 3.96936 19.3332 4.99992V16.0833C19.3332 17.2305 18.9394 18.1978 18.1519 18.9853C17.3644 19.7728 16.3971 20.1666 15.2498 20.1666L16.9998 21.9166V22.4999H14.6665L12.3332 20.1666H7.6665L5.33317 22.4999H2.99984V21.9166L4.74984 20.1666C3.60262 20.1666 2.63525 19.7728 1.84775 18.9853C1.06025 18.1978 0.666504 17.2305 0.666504 16.0833ZM9.99984 2.66659C7.93873 2.66659 6.43178 2.78811 5.479 3.03117C4.52623 3.27422 3.87484 3.54159 3.52484 3.83325H16.5915C16.2998 3.5027 15.6728 3.22561 14.7103 3.002C13.7478 2.77839 12.1776 2.66659 9.99984 2.66659ZM2.99984 9.66659H8.83317V6.16659H2.99984V9.66659ZM15.2498 11.9999H2.99984H16.9998H15.2498ZM11.1665 9.66659H16.9998V6.16659H11.1665V9.66659ZM5.9165 16.6666C6.42206 16.6666 6.84012 16.5013 7.17067 16.1708C7.50123 15.8402 7.6665 15.4221 7.6665 14.9166C7.6665 14.411 7.50123 13.993 7.17067 13.6624C6.84012 13.3319 6.42206 13.1666 5.9165 13.1666C5.41095 13.1666 4.99289 13.3319 4.66234 13.6624C4.33178 13.993 4.1665 14.411 4.1665 14.9166C4.1665 15.4221 4.33178 15.8402 4.66234 16.1708C4.99289 16.5013 5.41095 16.6666 5.9165 16.6666ZM14.0832 16.6666C14.5887 16.6666 15.0068 16.5013 15.3373 16.1708C15.6679 15.8402 15.8332 15.4221 15.8332 14.9166C15.8332 14.411 15.6679 13.993 15.3373 13.6624C15.0068 13.3319 14.5887 13.1666 14.0832 13.1666C13.5776 13.1666 13.1596 13.3319 12.829 13.6624C12.4984 13.993 12.3332 14.411 12.3332 14.9166C12.3332 15.4221 12.4984 15.8402 12.829 16.1708C13.1596 16.5013 13.5776 16.6666 14.0832 16.6666ZM4.74984 17.8333H15.2498C15.7554 17.8333 16.1734 17.668 16.504 17.3374C16.8346 17.0069 16.9998 16.5888 16.9998 16.0833V11.9999H2.99984V16.0833C2.99984 16.5888 3.16512 17.0069 3.49567 17.3374C3.82623 17.668 4.24428 17.8333 4.74984 17.8333ZM9.99984 3.83325H16.5915H3.52484H9.99984Z" fill="#9562FB"/>
</svg>
