<svg width="30" height="30" viewBox="0 0 30 30" fill="none" xmlns="http://www.w3.org/2000/svg">
<path d="M13.6666 29.5999V26.9332C10.8888 26.6221 8.50546 25.4721 6.51657 23.4832C4.52768 21.4943 3.37768 19.111 3.06657 16.3332H0.399902V13.6666H3.06657C3.37768 10.8888 4.52768 8.50546 6.51657 6.51657C8.50546 4.52768 10.8888 3.37768 13.6666 3.06657V0.399902H16.3332V3.06657C19.111 3.37768 21.4943 4.52768 23.4832 6.51657C25.4721 8.50546 26.6221 10.8888 26.9332 13.6666H29.5999V16.3332H26.9332C26.6221 19.111 25.4721 21.4943 23.4832 23.4832C21.4943 25.4721 19.111 26.6221 16.3332 26.9332V29.5999H13.6666ZM14.9999 24.3332C17.5777 24.3332 19.7777 23.4221 21.5999 21.5999C23.4221 19.7777 24.3332 17.5777 24.3332 14.9999C24.3332 12.4221 23.4221 10.2221 21.5999 8.3999C19.7777 6.57768 17.5777 5.66657 14.9999 5.66657C12.4221 5.66657 10.2221 6.57768 8.3999 8.3999C6.57768 10.2221 5.66657 12.4221 5.66657 14.9999C5.66657 17.5777 6.57768 19.7777 8.3999 21.5999C10.2221 23.4221 12.4221 24.3332 14.9999 24.3332ZM14.9999 20.3332C13.5332 20.3332 12.2777 19.811 11.2332 18.7666C10.1888 17.7221 9.66657 16.4666 9.66657 14.9999C9.66657 13.5332 10.1888 12.2777 11.2332 11.2332C12.2777 10.1888 13.5332 9.66657 14.9999 9.66657C16.4666 9.66657 17.7221 10.1888 18.7666 11.2332C19.811 12.2777 20.3332 13.5332 20.3332 14.9999C20.3332 16.4666 19.811 17.7221 18.7666 18.7666C17.7221 19.811 16.4666 20.3332 14.9999 20.3332ZM14.9999 17.6666C15.7332 17.6666 16.361 17.4055 16.8832 16.8832C17.4055 16.361 17.6666 15.7332 17.6666 14.9999C17.6666 14.2666 17.4055 13.6388 16.8832 13.1166C16.361 12.5943 15.7332 12.3332 14.9999 12.3332C14.2666 12.3332 13.6388 12.5943 13.1166 13.1166C12.5943 13.6388 12.3332 14.2666 12.3332 14.9999C12.3332 15.7332 12.5943 16.361 13.1166 16.8832C13.6388 17.4055 14.2666 17.6666 14.9999 17.6666Z" fill="#9562FB"/>
</svg>
